<?xml version="1.0" standalone="no"?><!DOCTYPE svg PUBLIC "-//W3C//DTD SVG 1.1//EN" "http://www.w3.org/Graphics/SVG/1.1/DTD/svg11.dtd"><svg t="1541064985319" class="icon" style="" viewBox="0 0 1024 1024" version="1.1" xmlns="http://www.w3.org/2000/svg" p-id="10013" xmlns:xlink="http://www.w3.org/1999/xlink" width="200" height="200"><defs><style type="text/css"></style></defs><path d="M512 954.531574c-244.403867 0-442.531574-198.127708-442.531574-442.531574s198.127708-442.531574 442.531574-442.531574 442.531574 198.127708 442.531574 442.531574-198.127708 442.531574-442.531574 442.531574z m-265.518944-236.015635c0 4.624003 1.510026 9.114344 4.27359 13.434897 0.780301 1.643689 1.625626 2.821365 2.521527 3.475228 19.995202 24.344655 82.014648 42.096493 155.464051 42.096493 89.615353 0 162.262781-26.418232 162.262782-59.003006 0-2.113314-0.372088-4.197728-1.007889-6.249629a134.204473 134.204473 0 0 0 0.419051-15.941974c0.350413-2.391477 0.588838-4.815466 0.588838-7.311706 0-8.196769-2.160277-15.699936-5.238129-22.747929l0.653863-0.310675a13.315685 13.315685 0 0 1-6.180992-7.210556 5.491004 5.491004 0 0 1-4.656516-3.135652 227.873054 227.873054 0 0 1-42.479419 20.826078c-7.828293-2.387864-5.436816-0.769463-2.254201 0.657475-27.88852 8.175093-63.366909 11.924871-102.103775 11.924872-67.308149 0-125.017879-14.905186-149.590122-36.132252-7.817456 10.010245-12.669047 22.448091-12.669047 36.132252 0 0.155338 0.021675 0.307063 0.021675 0.466012a134.847499 134.847499 0 0 0-0.4624 11.234884c0 5.126141 0.278163 9.984957 0.769463 14.381373a19.590602 19.590602 0 0 0-0.33235 3.413815z m0.41905-121.853327a20.258915 20.258915 0 0 0-0.41905 3.843703c0 32.588386 72.647428 59.003006 162.262781 59.003006s162.262781-26.418232 162.262781-59.003006c0-2.200014-0.411825-4.360291-1.094588-6.491667a132.867847 132.867847 0 0 0 0.53465-15.923912 50.249912 50.249912 0 0 0 0.559938-7.084118c0-8.113681-2.120539-15.544599-5.147816-22.531179-2.257814-1.705101-4.714316-4.335003-7.04438-7.792168-0.422663-0.624963-0.791138-1.264376-1.177676-1.900176-6.578367 4.266366-12.893022 7.611543-18.048063 9.634544-19.796514 9.620095-34.680025 11.574458-26.638595 8.644719-13.095322 4.009878-27.94632 7.23223-44.094207 9.58397-1.076526-0.755013-2.275877-1.484739-3.18984-2.275877-0.697213 0.892288-1.148776 1.950751-1.650914 2.969477-17.296663 2.286714-35.799901 3.659465-55.274903 3.659465-67.308149 0-125.017879-14.905186-149.590122-36.132251-7.644056 9.78627-12.419784 21.902604-12.629309 35.229126a134.338136 134.338136 0 0 0-0.480463 11.422733c0 5.429591 0.314288 10.55212 0.859776 15.143611z m-0.41905-114.165921c0 32.588386 72.647428 59.003006 162.262781 59.003006s162.262781-26.418232 162.262781-59.003006-72.647428-59.003006-162.262781-59.003006c-89.615353 0-162.262781 26.418232-162.262781 59.003006z m368.775107-265.518945c-89.615353 0-162.262781 26.418232-162.262781 59.003006s72.647428 59.003006 162.262781 59.003006 162.262781-26.418232 162.262781-59.003006-72.647428-59.003006-162.262781-59.003006z m162.262781 147.512933c0-13.687773-4.851591-26.122007-12.669046-36.132251-24.572243 21.227066-82.285585 36.132251-149.590122 36.132251s-125.017879-14.905186-149.590122-36.132251c-7.821068 10.010245-12.669047 22.448091-12.669047 36.132251 0 6.37968 1.271601 12.405334 3.142877 18.160051-1.972426 3.677528-3.142877 7.456205-3.142877 11.343259 0 11.639484 9.580357 13.590235 25.580131 22.733479 40.355267 3.778678 74.558442 21.758103 96.349058 34.2104 12.965272 1.213801 26.324307 2.059127 40.32998 2.059126 89.615353 0 162.262781-26.418232 162.262781-59.003005 0-3.887053-1.174063-7.665731-3.142877-11.343259 1.867664-5.754717 3.139265-11.783984 3.139264-18.160051z m0 118.006012c0-13.687773-4.851591-26.122007-12.669046-36.132252-24.572243 21.227066-82.285585 36.132251-149.590122 36.132252-5.053891 0-9.927157-0.24565-14.865449-0.408213 0.003613 0.140888 0.111988 0.270938 0.111988 0.408213 0 13.16396-8.713356 26.609694-20.13609 38.046878 2.145827 1.712326 4.457828 4.255528 6.650617 7.50678 5.183941 7.687406 7.788556 16.39715 6.29298 20.403415 0.989826 6.777055 0.397375 14.186298 0.473238 22.007366 4.967191 0.166175 16.382699 0.545488 21.469103 0.545488 89.615353 0 162.262781-26.418232 162.262781-59.003005 0-3.887053-1.174063-7.665731-3.142877-11.343259 1.871276-5.758329 3.142877-11.783984 3.142877-18.163663z m0 118.009624c0-13.687773-4.851591-26.122007-12.669046-36.132252-24.572243 21.227066-82.285585 36.132251-149.590122 36.132252-5.053891 0-9.927157-0.24565-14.865449-0.408213 0.003613 0.140888 0.111988 0.270938 0.111988 0.408213 0 12.986947-9.331094 26.728907-23.622155 39.336541 1.419714 0.509363 3.04534 1.636464 4.732378 3.197065a13.145897 13.145897 0 0 1 5.55603 6.647005c4.714316 7.084118 7.27558 15.013561 6.433867 19.287151 0.559938 6.083454 0.1156 12.629309 0.184237 19.496677 4.967191 0.166175 16.382699 0.545488 21.469104 0.545488 89.615353 0 162.262781-26.418232 162.262781-59.003006 0-3.887053-1.174063-7.665731-3.142877-11.343258 1.867664-5.758329 3.139265-11.783984 3.139264-18.163663z m-266.671332 76.581443c0.751401-0.220363 1.517251-0.429888 2.254201-0.657475 5.017766 3.34879 0.975376 2.102477-2.254201 0.657475z" fill="#4acf7a" p-id="10014"></path></svg>